<svg id="exGrjsLD3qm1" xmlns="http://www.w3.org/2000/svg" xmlns:xlink="http://www.w3.org/1999/xlink" viewBox="0 0 118 24" shape-rendering="geometricPrecision" text-rendering="geometricPrecision" project-id="e35d40556e80432b8943a25c5e0168a5" export-id="f1f5def3669b4c9ab2d767d3ee2d7569" cached="false"><path d="M1.51705,21v-17.45455h11.76135v3.04262h-8.07101v4.15913h7.46591v3.0426h-7.46591v4.1676h8.10511v3.0426h-11.79545ZM19.8983,7.90909l2.4034,4.57671l2.463-4.57671h3.7245L24.6966,14.4545L28.5914,21h-3.7073l-2.5824-4.5256L19.7619,21h-3.75l3.8864-6.5455-3.75-6.54541h3.75ZM36.8114,21.2557c-1.3409,0-2.4943-.2841-3.4602-.8523-.9602-.5739-1.6988-1.3693-2.2159-2.3864-.5114-1.017-.767-2.1875-.767-3.5113c0-1.3409.2585-2.5171.7755-3.5284.5228-1.01707,1.2642-1.80969,2.2245-2.37787.9602-.57386,2.1022-.86079,3.4261-.86079c1.142,0,2.142.20738,3,.62215s1.5369.99716,2.0369,1.74721.7756,1.6306.8267,2.642h-3.4261c-.0966-.6534-.3523-1.179-.767-1.5767-.4091-.4034-.9461-.6051-1.6108-.6051-.5625,0-1.054.1534-1.4745.4602-.4147.3011-.7386.7415-.9716,1.321-.2329.5796-.3494,1.2813-.3494,2.1051c0,.8353.1136,1.5455.3409,2.1307.233.5853.5597,1.0313.9801,1.3381s.912.4602,1.4745.4602c.4147,0,.7869-.0852,1.1164-.2557.3353-.1704.6108-.4176.8267-.7414.2216-.3296.3665-.7245.4347-1.1847h3.4261c-.0568,1-.3295,1.8807-.8181,2.6421-.483.7556-1.1506,1.3465-2.0029,1.7727s-1.8608.6392-3.0256.6392ZM49.3333,3.54545v17.45455h-3.6307v-17.45455h3.6307ZM61.3566,15.4261v-7.51701h3.6306v13.09091h-3.4857v-2.3778h-.1364c-.2955.767-.7869,1.3835-1.4744,1.8494-.6819.4659-1.5143.6989-2.4972.6989-.875,0-1.6449-.1989-2.3097-.5966-.6647-.3978-1.1846-.9631-1.5596-1.6961-.3693-.7329-.5568-1.6108-.5625-2.6335v-8.33521h3.6307v7.68751c.0056.7727.213,1.3835.6221,1.8324s.9574.6733,1.6449.6733c.4375,0,.8466-.0995,1.2273-.2983.3807-.2046.6875-.5057.9204-.9034.2387-.3978.3551-.8892.3495-1.4745ZM79.5034,11.642l-3.3239.2046c-.0568-.2841-.1789-.5398-.3664-.7671-.1875-.2329-.4347-.4176-.7415-.5539-.3011-.1421-.6619-.2131-1.0824-.2131-.5625,0-1.0369.1193-1.4233.358-.3864.2329-.5795.5454-.5795.9375c0,.3125.125.5767.375.7926s.6789.3892,1.2869.5199l2.3693.4772c1.2727.2614,2.2216.6818,2.8466,1.2614.625.5795.9375,1.3409.9375,2.2841c0,.8579-.2528,1.6108-.7585,2.2585-.5.6477-1.1875,1.1534-2.0625,1.5171-.8693.3579-1.8722.5369-3.0085.5369-1.733,0-3.1137-.3608-4.1421-1.0824-1.0227-.7273-1.6221-1.7159-1.7983-2.9659l3.571-.1875c.108.5284.3694.9318.7841,1.2102.4148.2727.9461.4091,1.5938.4091.6363,0,1.1477-.1222,1.5341-.3665.392-.25.5909-.571.5966-.963-.0057-.3296-.1449-.5995-.4177-.8097-.2727-.2159-.6931-.3807-1.2613-.4943l-2.2671-.4517c-1.2784-.2557-2.2301-.6989-2.8551-1.3296-.6193-.6307-.929-1.4346-.929-2.4119c0-.8409.2273-1.5653.6819-2.1733.4602-.60795,1.1051-1.0767,1.9346-1.40625.8353-.32954,1.8125-.49431,2.9318-.49431c1.6535,0,2.9546.34943,3.9035,1.04829.9545.69887,1.5113,1.65057,1.6704,2.85507ZM82.8079,21v-13.09091h3.6307v13.09091h-3.6307ZM84.6318,6.22159c-.5398,0-1.0029-.17898-1.3892-.53693-.3807-.36364-.571-.7983-.571-1.30398c0-.5.1903-.92898.571-1.28693.3863-.36364.8494-.54546,1.3892-.54546s1,.18182,1.3807.54546c.3863.35795.5795.78693.5795,1.28693c0,.50568-.1932.94034-.5795,1.30398-.3807.35795-.8409.53693-1.3807.53693Zm17.6402,1.6875L97.6948,21h-4.0909L89.0272,7.90909h3.8352l2.7188,9.36651h.1364l2.7102-9.36651h3.8442Zm8.122,13.34661c-1.347,0-2.506-.2727-3.478-.8182-.966-.5511-1.71-1.3295-2.233-2.3352-.522-1.0114-.784-2.2074-.784-3.5881c0-1.3466.262-2.5284.784-3.5454.523-1.0171,1.259-1.80971,2.208-2.37789.954-.56818,2.074-.85227,3.358-.85227.863,0,1.667.1392,2.412.41761.75.27273,1.403.68466,1.96,1.2358.562.55113,1,1.24435,1.312,2.07955.313.8295.469,1.8011.469,2.9148v.9971h-11.054v-2.25h7.636c0-.5227-.113-.9858-.34-1.3892-.228-.4034-.543-.7187-.946-.946-.398-.233-.861-.3494-1.39-.3494-.551,0-1.039.1278-1.466.3835-.42.25-.75.5881-.988,1.0142-.239.4204-.361.8892-.367,1.4062v2.1392c0,.6478.12,1.2074.358,1.679.245.4716.588.8352,1.031,1.0909.444.2557.969.3836,1.577.3836.404,0,.773-.0569,1.108-.1705s.622-.2841.861-.5114.42-.5056.545-.8352l3.358.2216c-.17.8068-.52,1.5114-1.048,2.1136-.523.5966-1.199,1.0625-2.028,1.3978-.824.3295-1.776.4943-2.855.4943Z" fill="#fff"/></svg>
